<svg xmlns="http://www.w3.org/2000/svg" viewBox="0 0 800 374" width="800" height="374" role="img" aria-label="A baremetal guest (2 vCPUs, 64 MiB) and a FreeRTOS guest (2 vCPUs, 128 MiB), each with a timer and a UART, running on the Bao hypervisor">
<title>A baremetal guest (2 vCPUs, 64 MiB) and a FreeRTOS guest (2 vCPUs, 128 MiB), each with a timer and a UART, running on the Bao hypervisor</title>
<rect x="0.5" y="0.5" width="799" height="373" rx="6" fill="#0B1F33" stroke="#1B3550"/>
<rect x="24.5" y="24.5" width="370" height="77" rx="4" fill="none" stroke="#2A4666"/>
<path d="M37.44 45.84 35.27 38.16H36.61L37.62 42.03L38.29 44.64H38.35L39.03 42.03L40.05 38.16H41.33L39.16 45.84ZM47.59 42.16 47.63 39.85H47.54L46 43.8L44.46 39.85H44.37L44.41 42.16V45.84H43.32V38.16H44.82L46 41.21H46.08L47.27 38.16H48.68V45.84H47.59ZM59.07 45.84V44.82H61.22V39.06H61.14L59.35 40.97L58.6 40.28L60.55 38.16H62.46V44.82H64.32V45.84Z" fill="#8B9BB0"/>
<rect x="35" y="56" width="349" height="35" rx="3" fill="#12294A"/>
<path d="M175.89 68.6H182.03L183.43 70V72.74L182.87 73.32L183.87 74.33V76.89L182.35 78.4H175.89ZM181.05 72.7 181.56 72.2V70.69L181.07 70.2H177.75V72.7ZM181.39 76.8 181.99 76.2V74.83L181.39 74.23H177.75V76.8ZM184.99 77.11V75.52L186.27 74.23H189.82V73.35L189.38 72.91H187.28L186.86 73.35V73.74H185.04V72.94L186.54 71.43H190.14L191.64 72.94V78.4H189.97V77.41L188.93 78.4H186.27ZM188.81 76.97 189.82 76.01V75.54H187.18L186.81 75.92V76.62L187.16 76.97ZM193.25 71.43H194.95V72.59L196.07 71.43H198.06V73H196.45L195.09 74.4V78.4H193.25ZM198.83 76.97V72.88L200.27 71.43H204.21L205.66 72.88V75.53H200.68V76.43L201.13 76.89H203.41L203.83 76.45V76.09H205.65V77L204.26 78.4H200.25ZM203.82 74.24V73.43L203.34 72.94H201.16L200.68 73.43V74.24ZM207.13 71.43H208.84V72.58L209.98 71.43H211.74L212.69 72.39L213.64 71.43H216.08L217.58 72.94V78.4H215.73V73.49L215.25 73H214.08L213.34 73.74V78.4H211.54V73.46L211.1 73H210.26L208.98 74.28V78.4H207.13ZM219.05 76.97V72.88L220.49 71.43H224.42L225.88 72.88V75.53H220.9V76.43L221.34 76.89H223.63L224.05 76.45V76.09H225.87V77L224.48 78.4H220.46ZM224.03 74.24V73.43L223.56 72.94H221.37L220.9 73.43V74.24ZM227.98 76.97V72.98H226.72V71.43H228.01V69.16H229.83V71.43H231.96V73H229.83V76.37L230.3 76.83H231.96V78.4H229.42ZM232.94 77.11V75.52L234.22 74.23H237.77V73.35L237.33 72.91H235.23L234.81 73.35V73.74H232.99V72.94L234.49 71.43H238.09L239.59 72.94V78.4H237.92V77.41L236.88 78.4H234.22ZM236.76 76.97 237.77 76.01V75.54H235.13L234.76 75.92V76.62L235.11 76.97ZM241.27 68.4H243.11V78.4H241.27Z" fill="#F8FAFC"/>
<rect x="405.5" y="24.5" width="370" height="77" rx="4" fill="none" stroke="#13F0C4"/>
<path d="M418.44 45.84 416.27 38.16H417.61L418.62 42.03L419.29 44.64H419.36L420.03 42.03L421.05 38.16H422.32L420.16 45.84ZM428.59 42.16 428.63 39.85H428.54L427 43.8L425.46 39.85H425.37L425.4 42.16V45.84H424.32V38.16H425.82L427 41.21H427.08L428.26 38.16H429.68V45.84H428.59ZM445.09 45.84H439.79V44.66L442.3 42.47Q442.89 41.95 443.22 41.47Q443.54 41 443.54 40.47V40.35Q443.54 39.74 443.21 39.42Q442.88 39.1 442.26 39.1Q441.62 39.1 441.27 39.44Q440.93 39.78 440.77 40.31L439.69 39.9Q439.8 39.54 440.01 39.2Q440.22 38.87 440.55 38.6Q440.87 38.34 441.32 38.18Q441.76 38.03 442.34 38.03Q442.94 38.03 443.41 38.2Q443.87 38.37 444.19 38.67Q444.51 38.96 444.68 39.38Q444.84 39.79 444.84 40.28Q444.84 40.75 444.7 41.14Q444.57 41.53 444.32 41.88Q444.07 42.24 443.73 42.57Q443.39 42.9 442.98 43.23L441.12 44.79H445.09Z" fill="#13F0C4"/>
<rect x="416" y="56" width="349" height="35" rx="3" fill="#13F0C4"/>
<path d="M558.18 68.6H565.12V70.21H560.08V72.93H564.45V74.54H560.08V78.4H558.18ZM566.17 71.43H567.88V72.59L569 71.43H570.99V73H569.38L568.02 74.4V78.4H566.17ZM571.76 76.97V72.88L573.2 71.43H577.14L578.59 72.88V75.53H573.61V76.43L574.06 76.89H576.34L576.76 76.45V76.09H578.58V77L577.19 78.4H573.17ZM576.74 74.24V73.43L576.27 72.94H574.08L573.61 73.43V74.24ZM579.92 76.97V72.88L581.37 71.43H585.3L586.75 72.88V75.53H581.77V76.43L582.22 76.89H584.5L584.92 76.45V76.09H586.74V77L585.35 78.4H581.34ZM584.91 74.24V73.43L584.43 72.94H582.25L581.77 73.43V74.24ZM596 75.15V78.4H594.09V75.59L593.25 74.65H590.2V78.4H588.29V68.6H594.44L595.94 70.11V73.08L594.99 74.05ZM590.2 73.08H593.57L594.06 72.59V70.69L593.57 70.2H590.2ZM599.97 70.21H597.05V68.6H604.8V70.21H601.88V78.4H599.97ZM605.78 76.79V70.21L607.39 68.6H612.43L614.04 70.21V76.79L612.43 78.4H607.39ZM611.42 76.78 612.14 76.06V70.94L611.42 70.22H608.4L607.69 70.94V76.06L608.4 76.78ZM615.51 76.89V75.49H617.39V76.31L617.85 76.78H620.75L621.22 76.3V74.68L620.76 74.21H617.05L615.54 72.7V70.11L617.05 68.6H621.48L622.99 70.11V71.53H621.11V70.69L620.65 70.22H617.88L617.42 70.69V72.13L617.88 72.59H621.59L623.1 74.1V76.86L621.56 78.4H617.02Z" fill="#0B1F33"/>
<rect x="24" y="114" width="752" height="44" rx="4" fill="#13F0C4"/>
<g transform="translate(38 127.36) scale(0.12)" fill="#0B1F33"><path d="M0,44 H80 L100,64 V124 L80,144 H20 L0,124 Z M30,68 H70 L76,74 V114 L70,120 H30 L24,114 V74 Z" fill-rule="evenodd"/><polygon points="0,0 24,0 24,38 0,62"/><polygon points="34,77 43,77 46,80 46,89 43,92 34,92 31,89 31,80"/><polygon points="57,77 66,77 69,80 69,89 66,92 57,92 54,89 54,80"/><polygon points="34,96 43,96 46,99 46,108 43,111 34,111 31,108 31,99"/><polygon points="57,96 66,96 69,99 69,108 66,111 57,111 54,108 54,99" fill="#F8FAFC"/><path d="M123.0 125.6V102.8L141.4 84.4H192.0V71.8L185.8 65.6H155.8L149.8 71.8V77.4H123.8V66.0L145.2 44.4H196.6L218.0 66.0V144.0H194.2V129.8L179.4 144.0H141.4ZM177.6 123.6 192.0 109.8V103.2H154.4L149.0 108.6V118.6L154.0 123.6Z"/><path transform="translate(240,44)" d="M20,0 H80 L100,20 V80 L80,100 H20 L0,80 V20 Z M30,24 H70 L76,30 V70 L70,76 H30 L24,70 V30 Z" fill-rule="evenodd"/><path d="M401.85 79.74H412.02V106.92L419.76 99.18H433.89L443.34 108.63V144H433.17V111.42L429.66 107.91H421.38L412.02 117.36V144H401.85ZM494.64 99.18V154.62L485.37 163.8H462.51L454.59 155.97V150.03H464.76V153L466.92 155.25H480.96L484.47 151.65V136.35L476.91 144H462.42L453.24 134.73V99.18H463.41V131.76L466.92 135.27H475.11L484.47 125.55V99.18ZM505.44 99.18H514.89V106.2L522 99.18H539.19L548.19 108.18V135L539.19 144H521.91L515.61 138.69V163.08H505.44ZM534.42 135.27 538.02 131.76V111.42L534.42 107.91H523.62L515.61 115.92V128.43L523.17 135.27ZM557.19 135.09V108.18L566.1 99.18H590.49L599.58 108.18V124.92H567.36V132.12L570.78 135.54H586.17L589.41 132.21V129.51H599.49V135.27L590.76 144H566.01ZM589.41 117.45V111.24L585.9 107.64H570.87L567.36 111.24V117.45ZM609.03 99.18H618.48V106.83L625.95 99.18H638.37V107.91H628.2L619.2 117.09V144H609.03ZM638.82 99.18H649.35L660.69 132.75H661.05L672.48 99.18H683.01L666 144H655.74ZM687.96 89.55V84.33L691.65 80.73H697.14L700.83 84.33V89.55L697.14 93.15H691.65ZM689.31 99.18H699.48V144H689.31ZM708.93 135.63V130.14H718.92V133.02L721.44 135.63H736.74L739.26 133.02V128.16L736.65 125.55H717.3L709.29 117.45V107.37L717.48 99.18H740.07L748.35 107.55V113.04H738.36V110.16L735.84 107.55H721.8L719.28 110.16V114.66L721.89 117.27H741.15L749.25 125.46V135.81L741.06 144H717.21ZM756.9 135V108.18L765.81 99.18H790.65L799.65 108.18V135L790.65 144H765.81ZM785.88 135.45 789.48 131.85V111.33L785.88 107.73H770.67L767.07 111.33V131.85L770.67 135.45ZM809.55 99.18H819V106.83L826.47 99.18H838.89V107.91H828.72L819.72 117.09V144H809.55Z"/></g>
<path d="M27.52 180.97Q26.06 180.97 25.35 179.94Q24.64 178.9 24.64 177Q24.64 175.1 25.35 174.06Q26.06 173.03 27.52 173.03Q28.08 173.03 28.49 173.18Q28.91 173.33 29.2 173.58Q29.5 173.84 29.7 174.19Q29.91 174.54 30.04 174.93L28.93 175.31Q28.84 175.04 28.73 174.81Q28.62 174.58 28.45 174.42Q28.29 174.25 28.06 174.15Q27.84 174.05 27.51 174.05Q26.7 174.05 26.32 174.67Q25.95 175.29 25.95 176.35V177.65Q25.95 178.71 26.32 179.33Q26.7 179.95 27.51 179.95Q27.84 179.95 28.06 179.85Q28.29 179.75 28.45 179.58Q28.62 179.42 28.73 179.19Q28.84 178.96 28.93 178.69L30.04 179.07Q29.91 179.46 29.7 179.81Q29.5 180.16 29.2 180.42Q28.91 180.67 28.49 180.82Q28.08 180.97 27.52 180.97ZM35 180.97Q34.27 180.97 33.74 180.7Q33.21 180.43 32.86 179.93Q32.51 179.42 32.35 178.68Q32.18 177.95 32.18 177Q32.18 176.06 32.35 175.32Q32.51 174.58 32.86 174.07Q33.21 173.57 33.74 173.3Q34.27 173.03 35 173.03Q35.73 173.03 36.26 173.3Q36.79 173.57 37.14 174.07Q37.49 174.58 37.65 175.32Q37.82 176.06 37.82 177Q37.82 177.95 37.65 178.68Q37.49 179.42 37.14 179.93Q36.79 180.43 36.26 180.7Q35.73 180.97 35 180.97ZM35 179.95Q35.83 179.95 36.17 179.33Q36.51 178.71 36.51 177.64V176.35Q36.51 175.29 36.17 174.67Q35.83 174.05 35 174.05Q34.17 174.05 33.83 174.67Q33.49 175.29 33.49 176.35V177.65Q33.49 178.71 33.83 179.33Q34.17 179.95 35 179.95ZM41.55 180.84H40.32V173.16H43.2Q44.3 173.16 44.87 173.78Q45.45 174.39 45.45 175.47Q45.45 176.35 45.02 176.92Q44.59 177.5 43.79 177.63L45.56 180.84H44.2L42.57 177.74H41.55ZM43.02 176.75Q44.16 176.75 44.16 175.7V175.23Q44.16 174.18 43.02 174.18H41.55V176.75ZM48.05 180.84V173.16H52.85V174.19H49.28V176.43H52.72V177.46H49.28V179.81H52.85V180.84ZM58.03 180.97Q57.03 180.97 56.35 180.62Q55.67 180.27 55.23 179.68L56.02 178.93Q56.46 179.45 56.96 179.7Q57.45 179.95 58.08 179.95Q58.8 179.95 59.19 179.62Q59.58 179.29 59.58 178.67Q59.58 178.18 59.3 177.91Q59.01 177.64 58.32 177.52L57.48 177.38Q56.93 177.3 56.56 177.09Q56.19 176.89 55.95 176.61Q55.72 176.33 55.62 175.98Q55.52 175.64 55.52 175.25Q55.52 174.16 56.22 173.6Q56.92 173.03 58.15 173.03Q59.07 173.03 59.71 173.32Q60.35 173.61 60.75 174.14L59.98 174.91Q59.66 174.53 59.23 174.29Q58.79 174.05 58.15 174.05Q57.47 174.05 57.12 174.34Q56.76 174.63 56.76 175.2Q56.76 175.67 57.04 175.94Q57.32 176.21 58.03 176.33L58.85 176.47Q59.88 176.66 60.35 177.23Q60.83 177.79 60.83 178.61Q60.83 179.13 60.65 179.57Q60.46 180.01 60.11 180.32Q59.75 180.63 59.23 180.8Q58.7 180.97 58.03 180.97Z" fill="#8B9BB0"/>
<rect x="24" y="190" width="182.5" height="32" rx="3" fill="#12294A"/>
<path d="M95.14 209.84 92.98 202.16H94.31L95.32 206.03L95.99 208.64H96.06L96.73 206.03L97.75 202.16H99.03L96.86 209.84ZM103.92 209.97Q102.46 209.97 101.75 208.94Q101.04 207.9 101.04 206Q101.04 204.1 101.75 203.06Q102.46 202.03 103.92 202.03Q104.48 202.03 104.89 202.18Q105.31 202.33 105.6 202.58Q105.9 202.84 106.1 203.19Q106.31 203.54 106.44 203.93L105.33 204.31Q105.24 204.04 105.13 203.81Q105.02 203.58 104.86 203.42Q104.69 203.25 104.46 203.15Q104.24 203.05 103.91 203.05Q103.09 203.05 102.72 203.67Q102.35 204.29 102.35 205.35V206.65Q102.35 207.71 102.72 208.33Q103.09 208.95 103.91 208.95Q104.24 208.95 104.46 208.85Q104.69 208.75 104.86 208.58Q105.02 208.42 105.13 208.19Q105.24 207.96 105.33 207.69L106.44 208.07Q106.31 208.46 106.1 208.81Q105.9 209.16 105.6 209.42Q105.31 209.67 104.89 209.82Q104.48 209.97 103.92 209.97ZM109.02 209.84V202.16H111.9Q113 202.16 113.57 202.78Q114.15 203.39 114.15 204.47Q114.15 205.55 113.57 206.17Q113 206.78 111.9 206.78H110.26V209.84ZM110.26 205.76H111.71Q112.85 205.76 112.85 204.7V204.23Q112.85 203.18 111.71 203.18H110.26ZM117.79 202.16V206.88Q117.79 207.35 117.82 207.74Q117.85 208.12 117.98 208.39Q118.11 208.66 118.37 208.81Q118.64 208.95 119.1 208.95Q119.56 208.95 119.83 208.81Q120.09 208.66 120.22 208.39Q120.35 208.12 120.38 207.74Q120.41 207.35 120.41 206.88V202.16H121.64V206.66Q121.64 207.48 121.55 208.11Q121.45 208.73 121.18 209.14Q120.9 209.55 120.4 209.76Q119.9 209.97 119.1 209.97Q118.3 209.97 117.8 209.76Q117.3 209.55 117.02 209.14Q116.75 208.73 116.65 208.11Q116.56 207.48 116.56 206.66V202.16ZM134.5 209.97Q133.77 209.97 133.24 209.7Q132.71 209.43 132.36 208.93Q132.01 208.42 131.85 207.68Q131.68 206.95 131.68 206Q131.68 205.06 131.85 204.32Q132.01 203.58 132.36 203.07Q132.71 202.57 133.24 202.3Q133.77 202.03 134.5 202.03Q135.23 202.03 135.76 202.3Q136.29 202.57 136.64 203.07Q136.99 203.58 137.15 204.32Q137.32 205.06 137.32 206Q137.32 206.95 137.15 207.68Q136.99 208.42 136.64 208.93Q136.29 209.43 135.76 209.7Q135.23 209.97 134.5 209.97ZM134.5 208.96Q135.34 208.96 135.69 208.34Q136.05 207.72 136.05 206.66V205.34Q136.05 204.28 135.69 203.66Q135.34 203.04 134.5 203.04Q134.08 203.04 133.79 203.2Q133.49 203.36 133.3 203.66Q133.11 203.97 133.03 204.39Q132.95 204.81 132.95 205.34V206.66Q132.95 207.19 133.03 207.61Q133.11 208.03 133.3 208.34Q133.49 208.64 133.79 208.8Q134.08 208.96 134.5 208.96ZM134.5 206.65Q134.12 206.65 133.97 206.5Q133.82 206.34 133.82 206.12V205.88Q133.82 205.66 133.97 205.5Q134.12 205.35 134.5 205.35Q134.89 205.35 135.03 205.5Q135.18 205.66 135.18 205.88V206.12Q135.18 206.34 135.03 206.5Q134.89 206.65 134.5 206.65Z" fill="#B7C4D4"/>
<rect x="212.5" y="190" width="182.5" height="32" rx="3" fill="#12294A"/>
<path d="M283.64 209.84 281.47 202.16H282.81L283.82 206.03L284.49 208.64H284.56L285.23 206.03L286.25 202.16H287.52L285.36 209.84ZM292.42 209.97Q290.96 209.97 290.25 208.94Q289.54 207.9 289.54 206Q289.54 204.1 290.25 203.06Q290.96 202.03 292.42 202.03Q292.98 202.03 293.39 202.18Q293.81 202.33 294.1 202.58Q294.4 202.84 294.6 203.19Q294.81 203.54 294.94 203.93L293.83 204.31Q293.74 204.04 293.63 203.81Q293.52 203.58 293.36 203.42Q293.19 203.25 292.96 203.15Q292.74 203.05 292.41 203.05Q291.59 203.05 291.22 203.67Q290.85 204.29 290.85 205.35V206.65Q290.85 207.71 291.22 208.33Q291.59 208.95 292.41 208.95Q292.74 208.95 292.96 208.85Q293.19 208.75 293.36 208.58Q293.52 208.42 293.63 208.19Q293.74 207.96 293.83 207.69L294.94 208.07Q294.81 208.46 294.6 208.81Q294.4 209.16 294.1 209.42Q293.81 209.67 293.39 209.82Q292.98 209.97 292.42 209.97ZM297.52 209.84V202.16H300.39Q301.49 202.16 302.07 202.78Q302.65 203.39 302.65 204.47Q302.65 205.55 302.07 206.17Q301.49 206.78 300.39 206.78H298.76V209.84ZM298.76 205.76H300.21Q301.35 205.76 301.35 204.7V204.23Q301.35 203.18 300.21 203.18H298.76ZM306.29 202.16V206.88Q306.29 207.35 306.32 207.74Q306.35 208.12 306.48 208.39Q306.61 208.66 306.87 208.81Q307.14 208.95 307.6 208.95Q308.06 208.95 308.33 208.81Q308.59 208.66 308.72 208.39Q308.85 208.12 308.88 207.74Q308.91 207.35 308.91 206.88V202.16H310.14V206.66Q310.14 207.48 310.05 208.11Q309.95 208.73 309.68 209.14Q309.4 209.55 308.9 209.76Q308.4 209.97 307.6 209.97Q306.8 209.97 306.3 209.76Q305.8 209.55 305.52 209.14Q305.25 208.73 305.15 208.11Q305.06 207.48 305.06 206.66V202.16ZM320.67 209.84V208.82H322.82V203.06H322.74L320.95 204.97L320.19 204.28L322.15 202.16H324.06V208.82H325.91V209.84Z" fill="#B7C4D4"/>
<rect x="405" y="190" width="182.5" height="32" rx="3" fill="#13F0C4"/>
<path d="M476.14 209.84 473.97 202.16H475.31L476.32 206.03L476.99 208.64H477.06L477.73 206.03L478.75 202.16H480.02L477.86 209.84ZM484.92 209.97Q483.46 209.97 482.75 208.94Q482.04 207.9 482.04 206Q482.04 204.1 482.75 203.06Q483.46 202.03 484.92 202.03Q485.48 202.03 485.89 202.18Q486.31 202.33 486.6 202.58Q486.9 202.84 487.1 203.19Q487.31 203.54 487.44 203.93L486.33 204.31Q486.24 204.04 486.13 203.81Q486.02 203.58 485.86 203.42Q485.69 203.25 485.46 203.15Q485.24 203.05 484.91 203.05Q484.09 203.05 483.72 203.67Q483.35 204.29 483.35 205.35V206.65Q483.35 207.71 483.72 208.33Q484.09 208.95 484.91 208.95Q485.24 208.95 485.46 208.85Q485.69 208.75 485.86 208.58Q486.02 208.42 486.13 208.19Q486.24 207.96 486.33 207.69L487.44 208.07Q487.31 208.46 487.1 208.81Q486.9 209.16 486.6 209.42Q486.31 209.67 485.89 209.82Q485.48 209.97 484.92 209.97ZM490.02 209.84V202.16H492.89Q493.99 202.16 494.57 202.78Q495.15 203.39 495.15 204.47Q495.15 205.55 494.57 206.17Q493.99 206.78 492.89 206.78H491.26V209.84ZM491.26 205.76H492.71Q493.85 205.76 493.85 204.7V204.23Q493.85 203.18 492.71 203.18H491.26ZM498.79 202.16V206.88Q498.79 207.35 498.82 207.74Q498.85 208.12 498.98 208.39Q499.11 208.66 499.37 208.81Q499.64 208.95 500.1 208.95Q500.56 208.95 500.83 208.81Q501.09 208.66 501.22 208.39Q501.35 208.12 501.38 207.74Q501.41 207.35 501.41 206.88V202.16H502.64V206.66Q502.64 207.48 502.55 208.11Q502.45 208.73 502.18 209.14Q501.9 209.55 501.4 209.76Q500.9 209.97 500.1 209.97Q499.3 209.97 498.8 209.76Q498.3 209.55 498.02 209.14Q497.75 208.73 497.65 208.11Q497.56 207.48 497.56 206.66V202.16ZM515.5 209.97Q514.77 209.97 514.24 209.7Q513.71 209.43 513.36 208.93Q513.01 208.42 512.85 207.68Q512.68 206.95 512.68 206Q512.68 205.06 512.85 204.32Q513.01 203.58 513.36 203.07Q513.71 202.57 514.24 202.3Q514.77 202.03 515.5 202.03Q516.23 202.03 516.76 202.3Q517.29 202.57 517.64 203.07Q517.99 203.58 518.15 204.32Q518.32 205.06 518.32 206Q518.32 206.95 518.15 207.68Q517.99 208.42 517.64 208.93Q517.29 209.43 516.76 209.7Q516.23 209.97 515.5 209.97ZM515.5 208.96Q516.34 208.96 516.69 208.34Q517.05 207.72 517.05 206.66V205.34Q517.05 204.28 516.69 203.66Q516.34 203.04 515.5 203.04Q515.08 203.04 514.78 203.2Q514.49 203.36 514.3 203.66Q514.11 203.97 514.03 204.39Q513.95 204.81 513.95 205.34V206.66Q513.95 207.19 514.03 207.61Q514.11 208.03 514.3 208.34Q514.49 208.64 514.78 208.8Q515.08 208.96 515.5 208.96ZM515.5 206.65Q515.11 206.65 514.97 206.5Q514.82 206.34 514.82 206.12V205.88Q514.82 205.66 514.97 205.5Q515.11 205.35 515.5 205.35Q515.88 205.35 516.03 205.5Q516.18 205.66 516.18 205.88V206.12Q516.18 206.34 516.03 206.5Q515.88 206.65 515.5 206.65Z" fill="#0B1F33"/>
<rect x="593.5" y="190" width="182.5" height="32" rx="3" fill="#13F0C4"/>
<path d="M664.64 209.84 662.48 202.16H663.81L664.82 206.03L665.49 208.64H665.56L666.23 206.03L667.25 202.16H668.53L666.36 209.84ZM673.42 209.97Q671.96 209.97 671.25 208.94Q670.54 207.9 670.54 206Q670.54 204.1 671.25 203.06Q671.96 202.03 673.42 202.03Q673.98 202.03 674.39 202.18Q674.81 202.33 675.1 202.58Q675.4 202.84 675.6 203.19Q675.81 203.54 675.94 203.93L674.83 204.31Q674.74 204.04 674.63 203.81Q674.52 203.58 674.36 203.42Q674.19 203.25 673.96 203.15Q673.74 203.05 673.41 203.05Q672.6 203.05 672.22 203.67Q671.85 204.29 671.85 205.35V206.65Q671.85 207.71 672.22 208.33Q672.6 208.95 673.41 208.95Q673.74 208.95 673.96 208.85Q674.19 208.75 674.36 208.58Q674.52 208.42 674.63 208.19Q674.74 207.96 674.83 207.69L675.94 208.07Q675.81 208.46 675.6 208.81Q675.4 209.16 675.1 209.42Q674.81 209.67 674.39 209.82Q673.98 209.97 673.42 209.97ZM678.52 209.84V202.16H681.4Q682.5 202.16 683.07 202.78Q683.65 203.39 683.65 204.47Q683.65 205.55 683.07 206.17Q682.5 206.78 681.4 206.78H679.76V209.84ZM679.76 205.76H681.21Q682.35 205.76 682.35 204.7V204.23Q682.35 203.18 681.21 203.18H679.76ZM687.29 202.16V206.88Q687.29 207.35 687.32 207.74Q687.35 208.12 687.48 208.39Q687.61 208.66 687.87 208.81Q688.14 208.95 688.6 208.95Q689.06 208.95 689.33 208.81Q689.59 208.66 689.72 208.39Q689.85 208.12 689.88 207.74Q689.91 207.35 689.91 206.88V202.16H691.14V206.66Q691.14 207.48 691.05 208.11Q690.95 208.73 690.68 209.14Q690.4 209.55 689.9 209.76Q689.4 209.97 688.6 209.97Q687.8 209.97 687.3 209.76Q686.8 209.55 686.52 209.14Q686.25 208.73 686.15 208.11Q686.06 207.48 686.06 206.66V202.16ZM701.67 209.84V208.82H703.82V203.06H703.74L701.95 204.97L701.2 204.28L703.15 202.16H705.06V208.82H706.92V209.84Z" fill="#0B1F33"/>
<path d="M28.89 241.16 28.93 238.85H28.84L27.3 242.8L25.76 238.85H25.67L25.7 241.16V244.84H24.62V237.16H26.12L27.3 240.21H27.38L28.56 237.16H29.98V244.84H28.89ZM32.65 244.84V237.16H37.45V238.19H33.88V240.43H37.32V241.46H33.88V243.81H37.45V244.84ZM44.3 241.16 44.33 238.85H44.24L42.7 242.8L41.16 238.85H41.07L41.1 241.16V244.84H40.02V237.16H41.52L42.7 240.21H42.78L43.96 237.16H45.38V244.84H44.3ZM50.4 244.97Q49.67 244.97 49.14 244.7Q48.61 244.43 48.26 243.93Q47.91 243.42 47.75 242.68Q47.58 241.95 47.58 241Q47.58 240.06 47.75 239.32Q47.91 238.58 48.26 238.07Q48.61 237.57 49.14 237.3Q49.67 237.03 50.4 237.03Q51.13 237.03 51.66 237.3Q52.19 237.57 52.54 238.07Q52.89 238.58 53.05 239.32Q53.22 240.06 53.22 241Q53.22 241.95 53.05 242.68Q52.89 243.42 52.54 243.93Q52.19 244.43 51.66 244.7Q51.13 244.97 50.4 244.97ZM50.4 243.95Q51.22 243.95 51.57 243.33Q51.91 242.71 51.91 241.64V240.35Q51.91 239.29 51.57 238.67Q51.22 238.05 50.4 238.05Q49.57 238.05 49.23 238.67Q48.89 239.29 48.89 240.35V241.65Q48.89 242.71 49.23 243.33Q49.57 243.95 50.4 243.95ZM56.95 244.84H55.72V237.16H58.59Q59.69 237.16 60.27 237.78Q60.85 238.39 60.85 239.47Q60.85 240.35 60.42 240.92Q59.99 241.5 59.19 241.63L60.96 244.84H59.6L57.97 241.74H56.95ZM58.42 240.75Q59.56 240.75 59.56 239.7V239.23Q59.56 238.18 58.42 238.18H56.95V240.75ZM65.18 244.84V241.95L62.63 237.16H64.01L64.99 239.07L65.78 240.71H65.84L66.65 239.07L67.63 237.16H68.97L66.42 241.95V244.84Z" fill="#8B9BB0"/>
<rect x="24.5" y="254.5" width="370" height="35" rx="3" fill="#12294A" stroke="#2A4666"/>
<path d="M36.72 275.15V268.85L38.12 267.45H42.05L43.45 268.85V270.15H41.68V269.41L41.23 268.96H38.94L38.48 269.41V271.56L39.25 270.82H42.1L43.5 272.22V275.15L42.1 276.55H38.12ZM41.28 275.04 41.73 274.59V272.78L41.28 272.32H39.43L38.48 273.3V274.59L38.94 275.04ZM48.61 274.86H44.22V273.08L48.26 267.45H50.38V273.35H51.48V274.86H50.38V276.55H48.61ZM48.69 273.4V269.43H48.64L45.95 273.22V273.4ZM55.99 267.45H57.63L60.34 273.33H60.36L63.08 267.45H64.72V276.55H63.01V271.01H62.99L60.9 275.28H59.8L57.72 271.01H57.7V276.55H55.99ZM66.28 268.72V267.89L66.88 267.29H67.78L68.38 267.89V268.72L67.78 269.32H66.88ZM66.47 270.08H68.19V276.55H66.47ZM69.94 267.45H75.65L76.95 268.75V271.3L76.43 271.83L77.35 272.77V275.15L75.95 276.55H69.94ZM74.74 271.26 75.21 270.79V269.39L74.75 268.93H71.67V271.26ZM75.05 275.07 75.61 274.51V273.24L75.05 272.68H71.67V275.07Z" fill="#F8FAFC"/>
<rect x="405.5" y="254.5" width="370" height="35" rx="3" fill="#13F0C4" stroke="#13F0C4" fill-opacity=".1"/>
<path d="M419.29 269.34 417.32 270.35V268.72L419.64 267.45H421.06V276.55H419.29ZM422.47 274.56 427.15 270.31V269.39L426.72 268.96H424.62L424.19 269.39V270.31H422.42V268.85L423.82 267.45H427.52L428.92 268.85V270.83L424.31 274.94V275.07H428.97V276.55H422.47ZM430.08 275.15V272.68L430.9 271.86L430.21 271.17V268.85L431.61 267.45H435.54L436.94 268.85V271.17L436.25 271.86L437.07 272.68V275.15L435.67 276.55H431.48ZM434.72 271.19 435.17 270.74V269.41L434.72 268.96H432.43L431.98 269.41V270.74L432.43 271.19ZM434.85 275.04 435.3 274.59V273.13L434.85 272.68H432.3L431.85 273.13V274.59L432.3 275.04ZM442.1 267.45H443.74L446.44 273.33H446.47L449.19 267.45H450.83V276.55H449.12V271.01H449.1L447 275.28H445.91L443.83 271.01H443.81V276.55H442.1ZM452.39 268.72V267.89L452.98 267.29H453.89L454.49 267.89V268.72L453.89 269.32H452.98ZM452.58 270.08H454.3V276.55H452.58ZM456.05 267.45H461.76L463.06 268.75V271.3L462.54 271.83L463.46 272.77V275.15L462.06 276.55H456.05ZM460.85 271.26 461.32 270.79V269.39L460.86 268.93H457.78V271.26ZM461.16 275.07 461.72 274.51V273.24L461.16 272.68H457.78V275.07Z" fill="#F8FAFC"/>
<path d="M24.9 305.16H27.19Q28.66 305.16 29.37 306.14Q30.08 307.12 30.08 309Q30.08 310.88 29.37 311.86Q28.66 312.84 27.19 312.84H24.9ZM27.11 311.83Q27.96 311.83 28.37 311.26Q28.79 310.69 28.79 309.64V308.36Q28.79 307.31 28.37 306.74Q27.96 306.17 27.11 306.17H26.12V311.83ZM32.65 312.84V305.16H37.45V306.19H33.88V308.43H37.32V309.46H33.88V311.81H37.45V312.84ZM41.84 312.84 39.67 305.16H41.01L42.02 309.03L42.69 311.64H42.75L43.43 309.03L44.45 305.16H45.72L43.56 312.84ZM47.98 312.84V311.9H49.78V306.1H47.98V305.16H52.82V306.1H51.02V311.9H52.82V312.84ZM58.32 312.97Q56.86 312.97 56.15 311.94Q55.44 310.9 55.44 309Q55.44 307.1 56.15 306.06Q56.86 305.03 58.32 305.03Q58.88 305.03 59.29 305.18Q59.71 305.33 60 305.58Q60.3 305.84 60.5 306.19Q60.71 306.54 60.84 306.93L59.73 307.31Q59.64 307.04 59.53 306.81Q59.42 306.58 59.25 306.41Q59.09 306.25 58.86 306.15Q58.64 306.05 58.31 306.05Q57.49 306.05 57.12 306.67Q56.75 307.3 56.75 308.35V309.65Q56.75 310.7 57.12 311.33Q57.49 311.95 58.31 311.95Q58.64 311.95 58.86 311.85Q59.09 311.75 59.25 311.59Q59.42 311.42 59.53 311.19Q59.64 310.96 59.73 310.69L60.84 311.07Q60.71 311.46 60.5 311.81Q60.3 312.16 60 312.42Q59.71 312.67 59.29 312.82Q58.88 312.97 58.32 312.97ZM63.45 312.84V305.16H68.25V306.19H64.68V308.43H68.12V309.46H64.68V311.81H68.25V312.84ZM73.43 312.97Q72.43 312.97 71.75 312.62Q71.07 312.27 70.63 311.68L71.42 310.93Q71.86 311.45 72.36 311.7Q72.85 311.95 73.48 311.95Q74.2 311.95 74.59 311.62Q74.98 311.29 74.98 310.67Q74.98 310.18 74.7 309.91Q74.41 309.64 73.72 309.52L72.88 309.38Q72.33 309.3 71.96 309.09Q71.59 308.89 71.36 308.61Q71.12 308.33 71.02 307.98Q70.92 307.64 70.92 307.25Q70.92 306.16 71.62 305.6Q72.32 305.03 73.56 305.03Q74.47 305.03 75.11 305.32Q75.75 305.61 76.15 306.14L75.38 306.91Q75.06 306.52 74.63 306.29Q74.19 306.05 73.56 306.05Q72.87 306.05 72.52 306.34Q72.16 306.63 72.16 307.2Q72.16 307.67 72.44 307.94Q72.72 308.21 73.43 308.33L74.25 308.47Q75.28 308.66 75.75 309.23Q76.23 309.79 76.23 310.61Q76.23 311.13 76.05 311.57Q75.87 312.01 75.51 312.32Q75.15 312.63 74.63 312.8Q74.11 312.97 73.43 312.97Z" fill="#8B9BB0"/>
<rect x="24.5" y="322.5" width="56.4" height="27" rx="3" fill="none" stroke="#2A4666"/>
<path d="M37.92 333.19V339.84H36.68V333.19H34.27V332.16H40.33V333.19ZM42.58 339.84V338.9H44.38V333.1H42.58V332.16H47.42V333.1H45.62V338.9H47.42V339.84ZM54.3 336.17 54.33 333.86H54.24L52.7 337.8L51.16 333.86H51.07L51.11 336.17V339.84H50.02V332.16H51.52L52.7 335.21H52.78L53.97 332.16H55.38V339.84H54.3ZM58.05 339.84V332.16H62.85V333.19H59.28V335.43H62.72V336.46H59.28V338.81H62.85V339.84ZM66.95 339.84H65.72V332.16H68.6Q69.7 332.16 70.27 332.78Q70.85 333.39 70.85 334.47Q70.85 335.35 70.42 335.92Q69.99 336.5 69.19 336.63L70.96 339.84H69.6L67.97 336.74H66.95ZM68.42 335.75Q69.56 335.75 69.56 334.7V334.23Q69.56 333.18 68.42 333.18H66.95V335.75Z" fill="#B7C4D4"/>
<rect x="87.9" y="322.5" width="48.7" height="27" rx="3" fill="none" stroke="#2A4666"/>
<path d="M99.39 332.16V336.88Q99.39 337.35 99.42 337.74Q99.45 338.12 99.58 338.39Q99.71 338.66 99.97 338.8Q100.24 338.95 100.7 338.95Q101.16 338.95 101.43 338.8Q101.69 338.66 101.82 338.39Q101.95 338.12 101.98 337.74Q102.01 337.35 102.01 336.88V332.16H103.24V336.66Q103.24 337.49 103.15 338.11Q103.05 338.73 102.78 339.14Q102.5 339.55 102 339.76Q101.5 339.97 100.7 339.97Q99.9 339.97 99.4 339.76Q98.9 339.55 98.62 339.14Q98.35 338.73 98.25 338.11Q98.16 337.49 98.16 336.66V332.16ZM110.18 339.84 109.6 337.79H107.16L106.57 339.84H105.32L107.56 332.16H109.25L111.49 339.84ZM108.42 333.4H108.33L107.39 336.77H109.37ZM114.95 339.84H113.72V332.16H116.6Q117.7 332.16 118.27 332.78Q118.85 333.39 118.85 334.47Q118.85 335.35 118.42 335.92Q117.99 336.5 117.19 336.63L118.96 339.84H117.6L115.97 336.74H114.95ZM116.42 335.75Q117.56 335.75 117.56 334.7V334.23Q117.56 333.18 116.42 333.18H114.95V335.75ZM124.42 333.19V339.84H123.18V333.19H120.78V332.16H126.83V333.19Z" fill="#B7C4D4"/>
<rect x="405.5" y="322.5" width="56.4" height="27" rx="3" fill="none" stroke="#13F0C4" stroke-opacity=".6"/>
<path d="M418.92 333.19V339.84H417.68V333.19H415.27V332.16H421.32V333.19ZM423.58 339.84V338.9H425.38V333.1H423.58V332.16H428.42V333.1H426.62V338.9H428.42V339.84ZM435.29 336.17 435.33 333.86H435.24L433.7 337.8L432.16 333.86H432.07L432.1 336.17V339.84H431.02V332.16H432.52L433.7 335.21H433.78L434.96 332.16H436.38V339.84H435.29ZM439.05 339.84V332.16H443.85V333.19H440.28V335.43H443.72V336.46H440.28V338.81H443.85V339.84ZM447.94 339.84H446.72V332.16H449.59Q450.69 332.16 451.27 332.78Q451.85 333.39 451.85 334.47Q451.85 335.35 451.42 335.92Q450.99 336.5 450.19 336.63L451.96 339.84H450.6L448.97 336.74H447.94ZM449.42 335.75Q450.56 335.75 450.56 334.7V334.23Q450.56 333.18 449.42 333.18H447.94V335.75Z" fill="#13F0C4"/>
<rect x="468.9" y="322.5" width="48.7" height="27" rx="3" fill="none" stroke="#13F0C4" stroke-opacity=".6"/>
<path d="M480.39 332.16V336.88Q480.39 337.35 480.42 337.74Q480.45 338.12 480.58 338.39Q480.71 338.66 480.97 338.8Q481.24 338.95 481.7 338.95Q482.16 338.95 482.43 338.8Q482.69 338.66 482.82 338.39Q482.95 338.12 482.98 337.74Q483.01 337.35 483.01 336.88V332.16H484.24V336.66Q484.24 337.49 484.15 338.11Q484.05 338.73 483.78 339.14Q483.5 339.55 483 339.76Q482.5 339.97 481.7 339.97Q480.9 339.97 480.4 339.76Q479.9 339.55 479.62 339.14Q479.35 338.73 479.25 338.11Q479.16 337.49 479.16 336.66V332.16ZM491.18 339.84 490.6 337.79H488.16L487.57 339.84H486.32L488.56 332.16H490.25L492.49 339.84ZM489.42 333.4H489.33L488.39 336.77H490.37ZM495.94 339.84H494.72V332.16H497.59Q498.69 332.16 499.27 332.78Q499.85 333.39 499.85 334.47Q499.85 335.35 499.42 335.92Q498.99 336.5 498.19 336.63L499.96 339.84H498.6L496.97 336.74H495.94ZM497.42 335.75Q498.56 335.75 498.56 334.7V334.23Q498.56 333.18 497.42 333.18H495.94V335.75ZM505.42 333.19V339.84H504.18V333.19H501.77V332.16H507.82V333.19Z" fill="#13F0C4"/>
</svg>
